# xmcd CD database file generated by Grip 3.2.0
# 
# Track frame offsets:
#       150
#       18585
#       35744
#       49094
#       66319
#       83079
#       98532
#       117913
#       132329
#       146578
#       161263
# 
# Disc length: 2437 seconds
# 
# Revision: 3
# Processed by: cddbd v1.5.2PL0 Copyright (c) Steve Scherf et al.
# Submitted via: Grip 3.2.0
# 
DISCID=9009830b
DTITLE=Noisettes - Wild Young Hearts
DYEAR=2009
DGENRE=Soul
TTITLE0=Sometimes
TTITLE1=Don't Upset The Rhythm
TTITLE2=Wild Young Hearts
TTITLE3=24 Hours
TTITLE4=Every Now And Then
TTITLE5=Beat Of My Heart
TTITLE6=Atticus
TTITLE7=Never Forget You
TTITLE8=So Complicated
TTITLE9=Saturday Night
TTITLE10=Cheap Kicks
EXTD=
EXTT0=
EXTT1=
EXTT2=
EXTT3=
EXTT4=
EXTT5=
EXTT6=
EXTT7=
EXTT8=
EXTT9=
EXTT10=
PLAYORDER=
